<svg xmlns="http://www.w3.org/2000/svg" width="217" height="61" viewBox="0 0 217 61" fill="none"><path d="M37.0051 48.337C35.4795 48.3395 33.978 47.9554 32.641 47.2206C31.3039 46.4857 30.1749 45.4241 29.3592 44.1348C29.1005 43.7257 29.015 43.2305 29.1214 42.7583C29.2278 42.2861 29.5175 41.8756 29.9266 41.6169C30.3358 41.3583 30.8309 41.2727 31.3031 41.3792C31.7753 41.4856 32.1859 41.7752 32.4445 42.1844C32.8223 42.7812 33.3139 43.2979 33.8912 43.7047C34.4686 44.1116 35.1205 44.4008 35.8096 44.5557C36.4987 44.7107 37.2117 44.7284 37.9076 44.6078C38.6036 44.4872 39.269 44.2308 39.8659 43.853C40.4627 43.4753 40.9793 42.9837 41.3862 42.4064C41.7931 41.829 42.0823 41.1771 42.2372 40.488C42.3921 39.7989 42.4098 39.0859 42.2893 38.39C42.1687 37.694 41.9122 37.0286 41.5345 36.4317L29.9487 18.0986C29.1647 16.9407 27.9607 16.1336 26.5919 15.848C25.223 15.5625 23.7968 15.8209 22.6152 16.5687C21.4337 17.3165 20.5896 18.4948 20.2617 19.8541C19.9338 21.2135 20.148 22.647 20.8587 23.8512L25.1882 30.6973C25.4468 31.1064 25.5323 31.6016 25.4259 32.0738C25.3195 32.546 25.0298 32.9565 24.6207 33.2152C24.2115 33.4738 23.7164 33.5594 23.2442 33.4529C22.772 33.3465 22.3614 33.0569 22.1028 32.6477L17.7733 25.8017C16.5153 23.778 16.108 21.3391 16.6404 19.0164C17.1728 16.6938 18.6016 14.6758 20.6155 13.4021C22.6293 12.1284 25.065 11.7023 27.3917 12.2166C29.7184 12.731 31.7474 14.1442 33.0367 16.1481L44.6329 34.4813C45.4966 35.8459 45.9784 37.4171 46.0282 39.0313C46.0779 40.6454 45.6938 42.2434 44.9157 43.6585C44.1377 45.0737 42.9944 46.2542 41.6048 47.0771C40.2153 47.9 38.6304 48.3351 37.0155 48.337H37.0051Z" fill="#FFFFFF"></path><path d="M37.0051 48.3967C35.3105 48.3928 33.652 47.9064 32.2238 46.9942C30.2003 45.7109 28.7692 43.6765 28.2452 41.3384C27.7212 39.0002 28.1471 36.5496 29.4293 34.5254L31.7667 30.8115C32.0254 30.4023 32.4359 30.1127 32.9081 30.0063C33.3803 29.8999 33.8755 29.9854 34.2846 30.244C34.6938 30.5027 34.9834 30.9132 35.0898 31.3854C35.1963 31.8576 35.1108 32.3528 34.8521 32.7619L32.4965 36.4862C31.7353 37.6929 31.4837 39.1521 31.7967 40.544C32.1097 41.9359 32.9619 43.1469 34.1665 43.9114C34.7525 44.2884 35.4079 44.5446 36.0943 44.665C36.7806 44.7854 37.4841 44.7676 38.1635 44.6127C38.8455 44.4552 39.4896 44.1644 40.0588 43.757C40.628 43.3496 41.111 42.8337 41.48 42.2389C41.6081 42.0363 41.7748 41.8609 41.9706 41.7228C42.1665 41.5846 42.3876 41.4864 42.6214 41.4337C42.8552 41.381 43.0971 41.3748 43.3333 41.4156C43.5695 41.4564 43.7953 41.5433 43.9979 41.6714C44.2005 41.7995 44.3759 41.9662 44.514 42.162C44.6522 42.3579 44.7504 42.579 44.8031 42.8128C44.8558 43.0467 44.862 43.2885 44.8212 43.5247C44.7804 43.7609 44.6935 43.9867 44.5654 44.1893C43.9421 45.1885 43.1274 46.0546 42.1682 46.7379C41.2091 47.4211 40.1243 47.9081 38.9764 48.1707C38.3298 48.3197 37.6686 48.3955 37.0051 48.3967Z" fill="#FFFFFF"></path><path d="M50.3673 33.6112C50.0401 33.613 49.7185 33.5265 49.4364 33.3607C49.1543 33.195 48.9221 32.9562 48.7644 32.6695C48.6067 32.3828 48.5293 32.0589 48.5404 31.7319C48.5514 31.4049 48.6505 31.0869 48.8272 30.8115L53.193 23.9057C53.9558 22.7003 54.2086 21.2412 53.8957 19.8495C53.5827 18.4577 52.7297 17.2472 51.5243 16.4844C50.3189 15.7215 48.8599 15.4688 47.4681 15.7817C46.0763 16.0947 44.8659 16.9477 44.103 18.1531L38.5841 26.8794C38.3255 27.2886 37.9149 27.5782 37.4427 27.6847C36.9705 27.7911 36.4753 27.7056 36.0662 27.4469C35.657 27.1883 35.3674 26.7777 35.261 26.3055C35.1546 25.8333 35.2401 25.3381 35.4987 24.929L41.0176 16.2026C41.6517 15.2004 42.4769 14.3329 43.4462 13.6496C44.4155 12.9663 45.5099 12.4807 46.6669 12.2203C47.8239 11.96 49.0208 11.9301 50.1893 12.1323C51.3579 12.3346 52.4752 12.765 53.4774 13.399C54.4796 14.033 55.3471 14.8583 56.0304 15.8276C56.7137 16.7969 57.1993 17.8913 57.4597 19.0482C57.72 20.2052 57.7499 21.4022 57.5477 22.5707C57.3454 23.7393 56.915 24.8566 56.281 25.8588L51.9126 32.762C51.7482 33.023 51.5202 33.2379 51.2498 33.3865C50.9795 33.535 50.6758 33.6124 50.3673 33.6112Z" fill="#FFFFFF"></path><path d="M58.6234 43.6258C60.511 43.6258 62.0412 42.0956 62.0412 40.2079C62.0412 38.3203 60.511 36.7901 58.6234 36.7901C56.7358 36.7901 55.2056 38.3203 55.2056 40.2079C55.2056 42.0956 56.7358 43.6258 58.6234 43.6258Z" fill="#FFFFFF"></path><path d="M15.4178 43.6258C17.3054 43.6258 18.8357 42.0956 18.8357 40.2079C18.8357 38.3203 17.3054 36.7901 15.4178 36.7901C13.5302 36.7901 12 38.3203 12 40.2079C12 42.0956 13.5302 43.6258 15.4178 43.6258Z" fill="#FFFFFF"></path><path d="M87.4958 37.6712L86.3037 34.8975H78.4552L77.2917 37.6037C77.1635 37.9113 76.9471 38.1741 76.6698 38.359C76.3925 38.5439 76.0667 38.6425 75.7334 38.6425C75.4497 38.6423 75.1705 38.5708 74.9216 38.4345C74.6728 38.2982 74.4621 38.1016 74.309 37.8627C74.156 37.6238 74.0654 37.3502 74.0456 37.0672C74.0258 36.7841 74.0775 36.5007 74.1959 36.2428L80.3927 22.761C80.5275 22.4666 80.7441 22.217 81.0166 22.042C81.2892 21.8671 81.6063 21.7741 81.9302 21.7741H82.7509C83.0751 21.7739 83.3926 21.8668 83.6656 22.0417C83.9386 22.2167 84.1557 22.4664 84.291 22.761L90.4825 36.2298C90.6009 36.4877 90.6526 36.7711 90.6328 37.0542C90.613 37.3373 90.5224 37.6108 90.3694 37.8497C90.2163 38.0886 90.0057 38.2852 89.7568 38.4215C89.5079 38.5578 89.2288 38.6293 88.945 38.6296C88.6363 38.6287 88.3346 38.5375 88.0771 38.3672C87.8195 38.1969 87.6175 37.955 87.4958 37.6712ZM79.6758 32.0744H85.0831L82.3795 25.7504L79.6758 32.0744Z" fill="#FFFFFF"></path><path d="M96.9761 37.1777V23.2077C96.9768 22.8243 97.1294 22.4567 97.4005 22.1856C97.6717 21.9145 98.0392 21.7618 98.4227 21.7611H107.157C107.541 21.7611 107.909 21.9135 108.181 22.1847C108.452 22.4559 108.605 22.8238 108.606 23.2077C108.606 23.5921 108.453 23.9607 108.182 24.2325C107.91 24.5043 107.541 24.6569 107.157 24.6569H100.625V28.6072H106.689C107.073 28.6072 107.441 28.7596 107.712 29.0309C107.984 29.3022 108.136 29.6701 108.136 30.0538C108.136 30.4375 107.984 30.8054 107.712 31.0767C107.441 31.348 107.073 31.5004 106.689 31.5004H100.625V35.7363H107.167C107.552 35.7363 107.92 35.889 108.192 36.1608C108.464 36.4326 108.616 36.8012 108.616 37.1855C108.616 37.5694 108.463 37.9374 108.191 38.2086C107.919 38.4798 107.551 38.6321 107.167 38.6321H98.4331C98.2417 38.6332 98.052 38.5963 97.8749 38.5236C97.6978 38.4509 97.5369 38.3438 97.4014 38.2086C97.266 38.0734 97.1587 37.9127 97.0856 37.7357C97.0126 37.5588 96.9754 37.3691 96.9761 37.1777Z" fill="#FFFFFF"></path><path d="M117.145 38.3309C116.543 38.1587 115.958 37.9327 115.397 37.6556C115.062 37.4886 114.804 37.1984 114.677 36.8456C114.55 36.4929 114.564 36.1048 114.717 35.7623L114.743 35.7052C114.825 35.5283 114.942 35.3698 115.087 35.2392C115.232 35.1086 115.402 35.0085 115.586 34.945C115.771 34.8815 115.966 34.8558 116.161 34.8695C116.355 34.8832 116.545 34.936 116.719 35.0247C118.016 35.6449 119.437 35.9611 120.875 35.9493C121.929 35.9493 122.737 35.7779 123.303 35.4299C123.562 35.2939 123.778 35.089 123.929 34.838C124.079 34.5869 124.157 34.2992 124.155 34.0066C124.157 33.7436 124.085 33.4852 123.947 33.2611C123.809 33.037 123.611 32.8562 123.376 32.7392C122.856 32.4362 121.935 32.141 120.612 31.8536C119.388 31.6322 118.195 31.2624 117.059 30.7524C116.279 30.4104 115.609 29.8595 115.122 29.1604C114.694 28.4578 114.482 27.6451 114.512 26.823C114.498 25.8468 114.795 24.8917 115.361 24.096C115.969 23.2653 116.791 22.6154 117.74 22.2157C118.86 21.7423 120.067 21.5104 121.282 21.5352C122.454 21.5296 123.62 21.7048 124.739 22.0546C125.267 22.2185 125.778 22.4315 126.266 22.6909C126.587 22.8651 126.83 23.1543 126.946 23.5002C127.062 23.8462 127.043 24.2233 126.892 24.5557L126.861 24.6284C126.776 24.8087 126.656 24.9699 126.507 25.102C126.358 25.2341 126.183 25.3344 125.994 25.3966C125.805 25.4589 125.605 25.4818 125.407 25.4641C125.208 25.4463 125.015 25.3882 124.84 25.2933C123.747 24.7351 122.536 24.4466 121.308 24.4518C120.335 24.4518 119.569 24.6388 119.01 25.0128C118.748 25.1747 118.533 25.4023 118.386 25.6729C118.24 25.9435 118.166 26.2477 118.173 26.5555C118.159 26.9002 118.275 27.2378 118.498 27.5008C118.798 27.8039 119.167 28.0302 119.573 28.1605C120.274 28.4066 120.989 28.6062 121.716 28.7578C123.885 29.2392 125.444 29.8538 126.391 30.6018C127.338 31.3498 127.812 32.3886 127.814 33.7184C127.841 34.4495 127.687 35.176 127.366 35.8334C127.044 36.4907 126.566 37.0587 125.973 37.4868C124.742 38.4027 123.027 38.8616 120.828 38.8633C119.581 38.8613 118.341 38.6821 117.145 38.3309Z" fill="#FFFFFF"></path><path d="M138.01 37.1102V24.7998H134.252C134.053 24.7998 133.855 24.7605 133.671 24.6841C133.486 24.6078 133.319 24.4959 133.178 24.3548C133.037 24.2137 132.925 24.0462 132.849 23.8619C132.772 23.6775 132.733 23.48 132.733 23.2805C132.733 23.0809 132.772 22.8834 132.849 22.699C132.925 22.5147 133.037 22.3472 133.178 22.2061C133.319 22.0651 133.486 21.9531 133.671 21.8768C133.855 21.8004 134.053 21.7611 134.252 21.7611H145.521C145.924 21.7611 146.311 21.9212 146.596 22.2061C146.88 22.4911 147.041 22.8775 147.041 23.2805C147.041 23.6834 146.88 24.0699 146.596 24.3548C146.311 24.6397 145.924 24.7998 145.521 24.7998H141.753V37.1102C141.753 37.5132 141.593 37.8996 141.308 38.1845C141.023 38.4695 140.636 38.6295 140.233 38.6295H139.54C139.34 38.6309 139.141 38.5926 138.955 38.5169C138.77 38.4411 138.601 38.3294 138.459 38.1882C138.317 38.047 138.204 37.879 138.127 37.694C138.05 37.509 138.01 37.3106 138.01 37.1102Z" fill="#FFFFFF"></path><path d="M152.985 37.1777V23.2077C152.986 22.8243 153.139 22.4567 153.41 22.1856C153.681 21.9145 154.049 21.7618 154.432 21.7611H163.166C163.55 21.7611 163.918 21.9135 164.19 22.1847C164.462 22.4559 164.615 22.8238 164.615 23.2077C164.615 23.5921 164.463 23.9607 164.191 24.2325C163.919 24.5043 163.55 24.6569 163.166 24.6569H156.624V28.6072H162.683C163.067 28.6072 163.435 28.7596 163.706 29.0309C163.977 29.3022 164.13 29.6701 164.13 30.0538C164.13 30.4375 163.977 30.8054 163.706 31.0767C163.435 31.348 163.067 31.5004 162.683 31.5004H156.624V35.7363H163.166C163.55 35.7363 163.919 35.889 164.191 36.1608C164.463 36.4326 164.615 36.8012 164.615 37.1855C164.615 37.5694 164.462 37.9374 164.19 38.2086C163.918 38.4798 163.55 38.6321 163.166 38.6321H154.432C154.241 38.6318 154.053 38.5939 153.877 38.5206C153.701 38.4473 153.541 38.34 153.407 38.2049C153.273 38.0698 153.166 37.9096 153.094 37.7333C153.022 37.5571 152.985 37.3683 152.985 37.1777Z" fill="#FFFFFF"></path><path d="M174.614 37.7673C173.361 37.0662 172.345 36.0085 171.695 34.7286C171.027 33.3067 170.68 31.7548 170.68 30.1837C170.68 28.6125 171.027 27.0606 171.695 25.6387C172.344 24.3614 173.361 23.3076 174.614 22.613C175.985 21.8784 177.524 21.5115 179.079 21.5482C180.168 21.5455 181.251 21.7209 182.284 22.0676C182.794 22.2355 183.285 22.4548 183.751 22.7221C184.056 22.9115 184.281 23.2064 184.382 23.5508C184.484 23.8952 184.455 24.2649 184.302 24.5894C184.219 24.7728 184.1 24.9375 183.952 25.0734C183.804 25.2094 183.63 25.3139 183.44 25.3804C183.25 25.447 183.049 25.4743 182.848 25.4606C182.648 25.447 182.452 25.3927 182.273 25.301C181.994 25.1573 181.706 25.0324 181.411 24.9271C180.684 24.6725 179.919 24.5434 179.149 24.5453C177.651 24.5453 176.499 25.0232 175.692 25.9789C174.885 26.9346 174.483 28.3388 174.484 30.1914C174.484 32.0441 174.887 33.4517 175.692 34.4144C176.497 35.3771 177.649 35.8593 179.149 35.861C179.919 35.8629 180.684 35.7338 181.411 35.4792C181.706 35.3739 181.994 35.249 182.273 35.1052C182.452 35.0135 182.648 34.9591 182.848 34.9453C183.048 34.9314 183.25 34.9585 183.439 35.0248C183.629 35.0911 183.803 35.1953 183.952 35.331C184.1 35.4667 184.219 35.6311 184.302 35.8142C184.455 36.1388 184.484 36.5085 184.382 36.8529C184.281 37.1972 184.056 37.4922 183.751 37.6816C183.286 37.9508 182.794 38.171 182.284 38.3387C181.251 38.6853 180.168 38.8608 179.079 38.8581C177.521 38.8904 175.982 38.5143 174.614 37.7673Z" fill="#FFFFFF"></path><path d="M202.586 21.7612C202.827 21.7595 203.066 21.8056 203.288 21.897C203.511 21.9884 203.714 22.1232 203.884 22.2936C204.055 22.464 204.189 22.6665 204.281 22.8894C204.372 23.1124 204.418 23.3512 204.417 23.5922V36.7986C204.418 37.0395 204.372 37.2784 204.281 37.5013C204.189 37.7242 204.055 37.9268 203.884 38.0971C203.714 38.2675 203.511 38.4023 203.288 38.4937C203.066 38.5851 202.827 38.6313 202.586 38.6296C202.346 38.6296 202.108 38.5821 201.887 38.49C201.666 38.3978 201.465 38.2627 201.296 38.0925C201.127 37.9223 200.993 37.7204 200.902 37.4983C200.812 37.2762 200.766 37.0384 200.768 36.7986V31.5472H195.025V36.7986C195.027 37.0384 194.981 37.2762 194.891 37.4983C194.8 37.7204 194.667 37.9223 194.498 38.0925C194.329 38.2627 194.128 38.3978 193.906 38.49C193.685 38.5821 193.447 38.6296 193.207 38.6296C192.722 38.6296 192.256 38.4367 191.913 38.0933C191.569 37.7499 191.376 37.2842 191.376 36.7986V23.5922C191.376 23.1066 191.569 22.6408 191.913 22.2975C192.256 21.9541 192.722 21.7612 193.207 21.7612C193.447 21.7612 193.685 21.8086 193.906 21.9008C194.128 21.993 194.329 22.128 194.498 22.2982C194.667 22.4684 194.8 22.6704 194.891 22.8925C194.981 23.1145 195.027 23.3523 195.025 23.5922V28.5787H200.757V23.5922C200.756 23.3515 200.802 23.1128 200.893 22.89C200.984 22.6673 201.119 22.4649 201.289 22.2945C201.459 22.1242 201.661 21.9894 201.884 21.8978C202.106 21.8062 202.345 21.7598 202.586 21.7612Z" fill="#FFFFFF"></path></svg>